<?xml version="1.0"?>
<svg xmlns="http://www.w3.org/2000/svg" xmlns:xlink="http://www.w3.org/1999/xlink" xmlns:svgjs="http://svgjs.com/svgjs" version="1.1" width="512" height="512" x="0" y="0" viewBox="0 0 60 60" style="enable-background:new 0 0 512 512" xml:space="preserve" class=""><g><g xmlns="http://www.w3.org/2000/svg" id="Page-1" fill="none" fill-rule="evenodd"><g id="035---Browser-Certified" fill="rgb(0,0,0)" fill-rule="nonzero"><path id="Shape" d="m53 23c.5522847 0 1-.4477153 1-1v-19c0-1.65685425-1.3431458-3-3-3h-48c-1.65685425 0-3 1.34314575-3 3v40c0 1.6568542 1.34314575 3 3 3h18c.5522847 0 1-.4477153 1-1s-.4477153-1-1-1h-18c-.55228475 0-1-.4477153-1-1v-33h50v12c0 .5522847.4477153 1 1 1zm-51-15v-5c0-.55228475.44771525-1 1-1h48c.5522847 0 1 .44771525 1 1v5z" fill="#ffc31a" data-original="#000000" style="" class=""/><circle id="Oval" cx="5" cy="5" r="1" fill="#ffc31a" data-original="#000000" style="" class=""/><circle id="Oval" cx="9" cy="5" r="1" fill="#ffc31a" data-original="#000000" style="" class=""/><circle id="Oval" cx="13" cy="5" r="1" fill="#ffc31a" data-original="#000000" style="" class=""/><path id="Shape" d="m31 4h-7c-.5522847 0-1 .44771525-1 1s.4477153 1 1 1h7c.5522847 0 1-.44771525 1-1s-.4477153-1-1-1z" fill="#ffc31a" data-original="#000000" style="" class=""/><path id="Shape" d="m5 15h2c.55228475 0 1-.4477153 1-1s-.44771525-1-1-1h-2c-.55228475 0-1 .4477153-1 1s.44771525 1 1 1z" fill="#ffc31a" data-original="#000000" style="" class=""/><path id="Shape" d="m20 13h-9c-.5522847 0-1 .4477153-1 1s.4477153 1 1 1h9c.5522847 0 1-.4477153 1-1s-.4477153-1-1-1z" fill="#ffc31a" data-original="#000000" style="" class=""/><path id="Shape" d="m33 14c0-.5522847-.4477153-1-1-1h-8c-.5522847 0-1 .4477153-1 1s.4477153 1 1 1h8c.5522847 0 1-.4477153 1-1z" fill="#ffc31a" data-original="#000000" style="" class=""/><path id="Shape" d="m19 19c.5522847 0 1-.4477153 1-1s-.4477153-1-1-1h-2c-.5522847 0-1 .4477153-1 1s.4477153 1 1 1z" fill="#ffc31a" data-original="#000000" style="" class=""/><path id="Shape" d="m23 17c-.5522847 0-1 .4477153-1 1s.4477153 1 1 1h2c.5522847 0 1-.4477153 1-1s-.4477153-1-1-1z" fill="#ffc31a" data-original="#000000" style="" class=""/><path id="Shape" d="m5 19h8c.5522847 0 1-.4477153 1-1s-.4477153-1-1-1h-8c-.55228475 0-1 .4477153-1 1s.44771525 1 1 1z" fill="#ffc31a" data-original="#000000" style="" class=""/><path id="Shape" d="m4 29c0 1.1045695.8954305 2 2 2h13c1.1045695 0 2-.8954305 2-2v-3c0-1.1045695-.8954305-2-2-2h-13c-1.1045695 0-2 .8954305-2 2zm2-3h13v3h-13z" fill="#ffc31a" data-original="#000000" style="" class=""/><path id="Shape" d="m43.962 32.875 3.544-3.624c.4559123-.4668335.6105609-1.1503807.4-1.768-.1992301-.6083778-.7233379-1.053251-1.356-1.151l-4.85-.739-2.17-4.612c-.275734-.5982342-.874279-.9814202-1.533-.9814202s-1.257266.383186-1.533.9814202l-2.164 4.612-4.849.739c-.6327916.0972298-1.1572969.5417258-1.357 1.15-.2108015.6176066-.0561239 1.3012816.4 1.768l3.544 3.625-.838 5.118c-.1129544.6554843.1619253 1.3173761.706 1.7.5250464.3740962 1.2183957.4130047 1.782.1l4.312-2.382 4.312 2.379c.5633517.3125812 1.2561806.27368 1.781-.1.5440747-.3826239.8189544-1.0445157.706-1.7zm-1.994.2.762 4.666-3.918-2.162c-.505133-.2799745-1.118867-.2799745-1.624 0l-3.918 2.157.762-4.666c.090746-.5461082-.0833291-1.1028515-.469-1.5l-3.273-3.343 4.47-.682c.5611704-.0864548 1.0421325-.447364 1.282-.962l1.958-4.163 1.958 4.163c.2396762.5143707.7202026.8752344 1.281.962l4.471.682-3.273 3.348c-.3845528.3957697-.5585756.9504904-.469 1.495z" fill="#ffc31a" data-original="#000000" style="" class=""/><path id="Shape" d="m59.435 52.1c-8.938-4.31-9.017-11.491-8.954-12.794 4.1720263-6.2600699 3.0616964-14.6422235-2.5963086-19.6001725s-14.1133778-4.957949-19.7713828 0-6.7683349 13.3401026-2.5963086 19.6001725c.05 1.269-.075 8.517-8.952 12.8-.3544259.1707349-.5758153.5334148-.565676.9266899.0101392.3932752.2499231.7440653.612676.8963101.18.075 3.766 1.557 6.846.7.1290297 1.9160904.9529037 3.7192262 2.317 5.071l.018.019c.2942536.2941971.7399339.3754403 1.1190695.2039954.3791355-.1714449.6124881-.5597463.5859305-.9749954.3910144-1.6610648 1.253191-3.1739538 2.483-4.357.438-.375.894-.727 1.351-1.079 1.2593734-.8790902 2.378676-1.9434391 3.32-3.157.9273872-1.3337 1.5934844-2.8311464 1.963-4.413.456.042.917.07 1.385.07s.929-.028 1.385-.07c.3692136 1.5801962 1.0342576 3.076206 1.96 4.409.9429153 1.2108845 2.0632007 2.2725091 3.323 3.149.457.352.913.7 1.349 1.077 1.2297785 1.1838725 2.0919151 2.6973858 2.483 4.359-.0270525.4159518.2067431.8050569.5867057.9764518.3799625.1713949.8263872.0891262 1.1202943-.2064518l.016-.018c1.3637991-1.351574 2.1876412-3.1542843 2.317-5.07 3.081.861 6.667-.62 6.846-.7.3627529-.1522448.6025368-.5030349.612676-.8963101.0101393-.3932751-.2112501-.755955-.565676-.9266899zm-26.41-2.92c-.8309009 1.0515295-1.8132706 1.9739123-2.915 2.737-.483.372-.966.746-1.433 1.146-1.1308504 1.024213-2.012346 2.2936078-2.577 3.711-.6062241-1.0495728-.8014905-2.286735-.548-3.472.1287636-.4085072-.0169322-.8536569-.3623102-1.1069793-.3453779-.2533225-.8137348-.2585585-1.1646898-.0130207-1.3499622.7440678-2.9361223.9348086-4.424.532 5.708-3.542 7.33-8.237 7.767-11.145 1.9942432 2.0054452 4.5154349 3.4054138 7.272 4.038-.3155327 1.2796615-.8629072 2.4906641-1.615 3.573zm-8.025-18.18c0-7.1797017 5.8202983-13 13-13s13 5.8202983 13 13-5.8202983 13-13 13c-7.1762751-.008266-12.991734-5.8237249-13-13zm23.775 27.312-.01.01.011-.012zm3.2-6.13c-.3509476-.2463531-.8198926-.2415515-1.1657222.0119362-.3458295.2534876-.4915661.699238-.3622778 1.1080638.2576191 1.1859159.0617556 2.4253143-.549 3.474-.5645669-1.4188439-1.4464209-2.6896305-2.578-3.715-.464-.4-.947-.772-1.43-1.144-1.1026983-.7637884-2.0857691-1.6872077-2.917-2.74-.7517437-1.0813119-1.2987936-2.2913292-1.614-3.57 2.756765-.6328222 5.2782167-2.0327427 7.273-4.038.436 2.908 2.058 7.6 7.766 11.145-1.4875672.402538-3.0733152.2118036-4.423-.532z" fill="#ffc31a" data-original="#000000" style="" class=""/></g></g></g></svg>
