<?xml version="1.0"?>
<svg xmlns="http://www.w3.org/2000/svg" xmlns:xlink="http://www.w3.org/1999/xlink" xmlns:svgjs="http://svgjs.com/svgjs" version="1.1" width="512" height="512" x="0" y="0" viewBox="0 0 64 64" style="enable-background:new 0 0 512 512" xml:space="preserve"><g><g xmlns="http://www.w3.org/2000/svg" id="exchange"><path d="M58.89,46.39a.914.914,0,0,0-.14-.07L52,43.35V23a1,1,0,0,0-1-1H37a1,1,0,0,0-1,1V51a1,1,0,0,0,1,1h6.28a3.03,3.03,0,0,0,.32.41L47,56.53V57a5,5,0,0,0,5,5h9a1,1,0,0,0,1-1V52A6.565,6.565,0,0,0,58.89,46.39ZM42.86,50H38V24H50V50h-.62l-1.65-1.66a2.9,2.9,0,0,0-4.08,0A2.961,2.961,0,0,0,42.86,50ZM60,60H52a3.009,3.009,0,0,1-3-3v-.83a.978.978,0,0,0-.23-.63l-3.68-4.47a.986.986,0,0,1,0-1.34.81.81,0,0,1,.6-.26.851.851,0,0,1,.61.27l6.12,6.17,1.42-1.41L51.3,51.94A.99.99,0,0,0,52,51V45.53l5.87,2.59A4.535,4.535,0,0,1,60,52Z" fill="#ffffff" data-original="#000000" style=""/><path d="M27,12H20.72a3.03,3.03,0,0,0-.32-.41L17,7.47V7a5,5,0,0,0-5-5H3A1,1,0,0,0,2,3v9a6.565,6.565,0,0,0,3.11,5.61.914.914,0,0,0,.14.07L12,20.65V41a1,1,0,0,0,1,1H27a1,1,0,0,0,1-1V13A1,1,0,0,0,27,12Zm-14.3.06A.99.99,0,0,0,12,13v5.47L6.13,15.88A4.535,4.535,0,0,1,4,12V4h8a3.009,3.009,0,0,1,3,3v.83a.978.978,0,0,0,.23.63l3.68,4.47a.986.986,0,0,1,0,1.34.81.81,0,0,1-.6.26.851.851,0,0,1-.61-.27L11.58,8.09,10.16,9.5ZM26,40H14V14h.62l1.65,1.66a2.9,2.9,0,0,0,4.08,0A2.961,2.961,0,0,0,21.14,14H26Z" fill="#ffffff" data-original="#000000" style=""/><path d="M53.194,7.809l1.411-1.417a15,15,0,0,0-21.21,0l1.411,1.417a13,13,0,0,1,18.388,0Z" fill="#ffffff" data-original="#000000" style=""/><path d="M51.777,9.223a10.994,10.994,0,0,0-15.554,0l1.414,1.414a9,9,0,0,1,12.726,0Z" fill="#ffffff" data-original="#000000" style=""/><path d="M48.951,12.056a6.989,6.989,0,0,0-9.9,0l1.421,1.408a4.988,4.988,0,0,1,7.06,0Z" fill="#ffffff" data-original="#000000" style=""/><path d="M41,17a3,3,0,1,0,3-3A3,3,0,0,0,41,17Zm4,0a1,1,0,1,1-1-1A1,1,0,0,1,45,17Z" fill="#ffffff" data-original="#000000" style=""/><path d="M20,60a12.95,12.95,0,0,1-9.194-3.809L9.4,57.606a15,15,0,0,0,21.21,0l-1.411-1.417A12.95,12.95,0,0,1,20,60Z" fill="#ffffff" data-original="#000000" style=""/><path d="M12.223,54.774a10.992,10.992,0,0,0,15.554,0L26.363,53.36a8.993,8.993,0,0,1-12.726,0Z" fill="#ffffff" data-original="#000000" style=""/><path d="M15.049,51.941a6.987,6.987,0,0,0,9.9,0L23.53,50.534a4.988,4.988,0,0,1-7.06,0Z" fill="#ffffff" data-original="#000000" style=""/><path d="M23,47a3,3,0,1,0-3,3A3,3,0,0,0,23,47Zm-4,0a1,1,0,1,1,1,1A1,1,0,0,1,19,47Z" fill="#ffffff" data-original="#000000" style=""/><path d="M22,31H18a1,1,0,0,0-1,1v4a1,1,0,0,0,1,1h4a1,1,0,0,0,1-1V32A1,1,0,0,0,22,31Zm-1,4H19V33h2Z" fill="#ffffff" data-original="#000000" style=""/><path d="M18,23a1,1,0,0,0-1,1v4a1,1,0,0,0,1,1h4a1,1,0,0,0,1-1V24a1,1,0,0,0-1-1Zm3,4H19V25h2Z" fill="#ffffff" data-original="#000000" style=""/><path d="M46,41a1,1,0,0,0,1-1V36a1,1,0,0,0-1-1H42a1,1,0,0,0-1,1v4a1,1,0,0,0,1,1Zm-3-4h2v2H43Z" fill="#ffffff" data-original="#000000" style=""/><path d="M42,33h4a1,1,0,0,0,1-1V28a1,1,0,0,0-1-1H42a1,1,0,0,0-1,1v4A1,1,0,0,0,42,33Zm1-4h2v2H43Z" fill="#ffffff" data-original="#000000" style=""/></g></g></svg>
